<svg width="100" height="100" viewBox="0 0 100 100" xmlns="http://www.w3.org/2000/svg">
  <defs>
    <linearGradient id="primaryGrad" x1="0%" y1="0%" x2="100%" y2="100%">
      <stop offset="0%">
        <animate attributeName="stop-color" values="#0ea5e9;#9945ff;#c9a227;#0ea5e9" dur="8s" repeatCount="indefinite"/>
      </stop>
      <stop offset="50%">
        <animate attributeName="stop-color" values="#38bdf8;#c9a227;#ec4899;#38bdf8" dur="8s" repeatCount="indefinite"/>
      </stop>
      <stop offset="100%">
        <animate attributeName="stop-color" values="#c9a227;#0ea5e9;#9945ff;#c9a227" dur="8s" repeatCount="indefinite"/>
      </stop>
    </linearGradient>

    <linearGradient id="blueGrad" x1="0%" y1="0%" x2="100%" y2="100%">
      <stop offset="0%">
        <animate attributeName="stop-color" values="#0284c7;#6366f1;#0284c7" dur="10s" repeatCount="indefinite"/>
      </stop>
      <stop offset="100%">
        <animate attributeName="stop-color" values="#38bdf8;#a78bfa;#38bdf8" dur="10s" repeatCount="indefinite"/>
      </stop>
    </linearGradient>

    <linearGradient id="frameHighlight" x1="0%" y1="0%" x2="100%" y2="100%">
      <stop offset="0%">
        <animate attributeName="stop-color" values="#38bdf8;#c9a227;#9945ff;#38bdf8" dur="6s" repeatCount="indefinite"/>
        <animate attributeName="stop-opacity" values="0.4;0.7;0.4" dur="4s" repeatCount="indefinite"/>
      </stop>
      <stop offset="100%">
        <animate attributeName="stop-color" values="#c9a227;#9945ff;#38bdf8;#c9a227" dur="6s" repeatCount="indefinite"/>
        <animate attributeName="stop-opacity" values="0.6;0.3;0.6" dur="4s" repeatCount="indefinite"/>
      </stop>
    </linearGradient>

    <linearGradient id="frameGrad" x1="0%" y1="0%" x2="100%" y2="100%">
      <stop offset="0%" stop-color="#0f172a"/>
      <stop offset="50%" stop-color="#020617"/>
      <stop offset="100%" stop-color="#0f172a"/>
    </linearGradient>

    <filter id="frameShadow" x="-20%" y="-20%" width="140%" height="140%">
      <feDropShadow dx="0" dy="2" stdDeviation="3" flood-color="#000" flood-opacity="0.5"/>
    </filter>
  </defs>

  <!-- Outer frame -->
  <polygon points="50,2 84,18 98,50 84,82 50,98 16,82 2,50 16,18"
           fill="url(#frameGrad)" filter="url(#frameShadow)"/>

  <!-- Frame edge highlight -->
  <polygon points="50,2 84,18 98,50 84,82 50,98 16,82 2,50 16,18"
           fill="none" stroke="url(#frameHighlight)" stroke-width="1.5"/>

  <!-- Inner surface — uniform dark, no gradient banding -->
  <polygon points="50,10 76,22 88,50 76,78 50,90 24,78 12,50 24,22"
           fill="#0a1628" opacity="0.85"/>

  <!-- Inner border -->
  <polygon points="50,10 76,22 88,50 76,78 50,90 24,78 12,50 24,22"
           fill="none" stroke="url(#blueGrad)" stroke-width="2"/>

  <!-- The W -->
  <path d="M24,30 L35,48 L50,34 L65,48 L76,30"
        fill="none" stroke="url(#primaryGrad)" stroke-width="5"
        stroke-linecap="round" stroke-linejoin="round"/>
</svg>
